<svg width="700" height="700" viewBox="0 0 700 700" fill="none" xmlns="http://www.w3.org/2000/svg">
<g clip-path="url(#clip0_1209_184)">
<g clip-path="url(#clip1_1209_184)">
<path d="M543.964 529.964H467.107V409.602C467.107 380.9 466.594 343.952 427.133 343.952C387.103 343.952 380.978 375.224 380.978 407.512V529.956H304.12V282.442H377.904V316.268H378.937C386.321 303.642 396.991 293.256 409.81 286.216C422.63 279.175 437.119 275.743 451.735 276.286C529.634 276.286 543.996 327.524 543.996 394.182L543.964 529.964ZM217.399 248.609C208.578 248.61 199.954 245.996 192.619 241.097C185.283 236.197 179.566 229.232 176.188 221.083C172.811 212.934 171.926 203.966 173.646 195.314C175.365 186.662 179.612 178.714 185.848 172.475C192.085 166.236 200.031 161.987 208.683 160.265C217.334 158.542 226.302 159.424 234.452 162.798C242.603 166.172 249.57 171.888 254.472 179.222C259.374 186.555 261.991 195.178 261.993 203.999C261.994 209.857 260.841 215.657 258.601 221.068C256.36 226.48 253.076 231.397 248.935 235.54C244.794 239.682 239.878 242.968 234.467 245.211C229.056 247.453 223.257 248.608 217.399 248.609ZM255.828 529.964H178.891V282.442H255.828V529.964ZM582.281 88.0325H140.27C130.237 87.9193 120.57 91.7937 113.393 98.8043C106.216 105.815 102.116 115.388 101.993 125.421V569.265C102.111 579.302 106.209 588.882 113.386 595.9C120.563 602.918 130.233 606.8 140.27 606.693H582.281C592.338 606.819 602.035 602.948 609.24 595.931C616.445 588.913 620.57 579.322 620.71 569.265V125.389C620.566 115.336 616.438 105.752 609.233 98.7417C602.027 91.7312 592.333 87.8679 582.281 88.0005" fill="black"/>
</g>
</g>
<defs>
<clipPath id="clip0_1209_184">
<rect width="700" height="700" fill="white"/>
</clipPath>
<clipPath id="clip1_1209_184">
<rect width="613.452" height="523" fill="white" transform="translate(102 88)"/>
</clipPath>
</defs>
</svg>
